#!OML:ASF H:\Terrain\Patient Classification 1\Terrain2\Thursday\justin.ASF
:FULLY-SPECIFIED
:DEGREES
2841
root 9.05013 23.9635 10.6969 -186.424 -181.335 181.661
lowerback 9.90647 0.462173 -4.33878
upperback 3.20421 0.224257 0.99959
thorax -2.23589 0.105237 3.45647
lowerneck -10.6164 -0.842469 -8.47449
upperneck 41.3765 -0.205902 3.47813
head 16.8051 -0.931747 3.07107
rclavicle -5.71506e-015 -1.78906e-015
rhumerus -31.484 -11.1435 -78.7632
rradius 33.7886
rwrist -10.001
rhand -19.5263 11.498
rfingers 7.12502
rthumb 6.7971 -18.3729
lclavicle -5.71506e-015 -1.78906e-015
lhumerus -36.774 5.63597 82.0763
lradius 35.9808
lwrist 6.77348
lhand -16.2977 21.5748
lfingers 7.12502
lthumb 9.91295 -308.679
rfemur -30.9225 -16.4721 13.2459
rtibia 99.0882
rfoot -10.174 4.42315
rtoes 3.47986
lfemur 0.929853 361.421 -24.6185
ltibia 23.3886
lfoot -8.6665 -11.2633
ltoes 14.4159
2842
root 9.03206 23.9638 10.7614 -186.429 -181.451 181.308
lowerback 10.0589 0.422503 -4.02403
upperback 3.17175 0.197664 1.07465
thorax -2.35141 0.0952706 3.36017
lowerneck -10.6528 -0.901262 -8.62991
upperneck 41.4327 -0.32967 3.68025
head 16.8577 -0.982454 3.17362
rclavicle -8.74653e-015 1.41137e-014
rhumerus -31.5945 -11.0027 -78.7921
rradius 34.0182
rwrist -10.0115
rhand -19.3247 11.1074
rfingers 7.12502
rthumb 6.99168 -18.7572
lclavicle -8.74653e-015 1.41137e-014
lhumerus -36.7574 5.52408 81.9386
lradius 36.0238
lwrist 6.77454
lhand -16.3227 21.3755
lfingers 7.12502
lthumb 9.88881 -308.877
rfemur -31.8978 -16.238 14.1519
rtibia 97.7213
rfoot -9.75324 3.71408
rtoes 3.56928
lfemur 1.10366 361.418 -24.1346
ltibia 23.5537
lfoot -8.96994 -11.3418
ltoes 13.2581
2843
root 9.02388 23.9458 10.8306 -186.493 -181.735 181.537
lowerback 10.1564 0.432253 -4.09595
upperback 3.21403 0.196121 0.934895
thorax -2.36059 0.0943891 3.25536
lowerneck -10.7827 -1.04029 -8.74267
upperneck 41.5392 -0.565712 3.85616
head 16.9747 -1.07699 3.24186
rclavicle 9.29318e-015 -2.78299e-015
rhumerus -31.6593 -11.0348 -78.737
rradius 34.1653
rwrist -10.1347
rhand -19.4111 11.1241
rfingers 7.12502
rthumb 6.90834 -18.7432
lclavicle 9.29318e-015 -2.78299e-015
lhumerus -36.6646 5.2247 81.8384
lradius 36.15
lwrist 6.78495
lhand -15.6175 21.6398
lfingers 7.12502
lthumb 10.5691 -308.646
rfemur -32.5554 -16.2373 14.1282
rtibia 96.2155
rfoot -9.40079 3.19074
rtoes 3.63068
lfemur 1.36085 361.286 -24.4006
ltibia 23.783
lfoot -9.34277 -11.355
ltoes 10.9676
2844
root 9.00591 23.9265 10.8957 -186.568 -182.108 181.505
lowerback 10.2671 0.372616 -4.18479
upperback 3.30692 0.107324 1.00369
thorax -2.31687 0.0474433 3.38831
lowerneck -10.9475 -1.08719 -8.80008
upperneck 41.3969 -0.610244 3.87671
head 16.9421 -1.09545 3.25073
rclavicle -1.31695e-015 -6.55989e-015
rhumerus -31.4146 -11.0038 -78.6694
rradius 34.0164
rwrist -10.0898
rhand -19.9046 11.4434
rfingers 7.12502
rthumb 6.43196 -18.4389
lclavicle -1.31695e-015 -6.55989e-015
lhumerus -36.566 5.16733 81.7931
lradius 36.3475
lwrist 6.64703
lhand -15.1504 21.8851
lfingers 7.12502
lthumb 11.0197 -308.424
rfemur -33.0723 -16.4512 14.5212
rtibia 94.6222
rfoot -9.13917 2.1362
rtoes 0.77595
lfemur 1.57696 361.219 -24.3079
ltibia 24.0152
lfoot -9.54725 -11.5538
ltoes 8.79122
2845
root 8.98971 23.9234 10.9616 -186.427 -182.466 181.383
lowerback 10.1543 0.261868 -4.24144
upperback 3.32578 -0.0359065 1.13466
thorax -2.22174 -0.0268111 3.57376
lowerneck -10.8728 -1.1051 -8.86551
upperneck 41.1079 -0.579076 3.75811
head 16.7608 -1.09833 3.20146
rclavicle -3.75206e-015 1.43125e-014
rhumerus -31.2009 -10.8656 -78.6189
rradius 33.9877
rwrist -10.0071
rhand -20.036 11.1767
rfingers 7.12502
rthumb 6.30502 -18.7095
lclavicle -3.75206e-015 1.43125e-014
lhumerus -36.404 5.23793 81.7875
lradius 36.2112
lwrist 6.78244
lhand -15.6328 21.2822
lfingers 7.12502
lthumb 10.5544 -309.003
rfemur -33.8937 -16.5129 14.9686
rtibia 92.9713
rfoot -8.59107 1.59256
rtoes 0.189082
lfemur 1.42802 361.18 -24.0923
ltibia 24.2944
lfoot -9.52403 -11.9029
ltoes 9.61094
2846
root 8.97924 23.9287 11.0295 -186.229 -182.682 181.345
lowerback 10.0446 0.220242 -4.19461
upperback 3.25025 -0.0815144 1.17898
thorax -2.23592 -0.0478013 3.59851
lowerneck -10.7376 -1.13893 -8.94868
upperneck 40.9874 -0.610628 3.73473
head 16.6649 -1.1226 3.19499
rclavicle -1.04113e-014 1.43125e-014
rhumerus -31.2646 -10.636 -78.488
rradius 34.2613
rwrist -10.2393
rhand -19.6247 10.8824
rfingers 7.12502
rthumb 6.70208 -18.9916
lclavicle -1.04113e-014 1.43125e-014
lhumerus -36.3861 4.9692 81.8783
lradius 36.0659
lwrist 7.67403
lhand -16.86 20.2756
lfingers 7.12502
lthumb 9.37043 -309.953
rfemur -34.7817 -16.2065 15.2104
rtibia 91.2242
rfoot -7.81853 1.45576
rtoes 2.88823
lfemur 1.25051 361.267 -23.9802
ltibia 24.5631
lfoot -9.55222 -12.1649
ltoes 11.4854
